{"glyphs":{":":{"x_min":0,"x_max":285,"ha":285,"o":"m 87 88 q 87 107 100 120 q 113 133 142 133 l 145 133 q 202 133 202 85 l 203 72 l 203 63 l 202 55 l 201 44 q 201 26 188 15 q 175 4 158 4 q 154 3 152 3 l 144 3 l 142 3 l 126 5 q 113 5 100 15 q 87 26 87 46 q 86 52 86 55 l 85 68 l 85 70 l 85 77 q 87 87 87 88 z m 139 479 l 151 479 q 180 479 191 465 q 203 452 203 433 l 204 419 l 204 408 l 203 399 l 201 389 q 201 376 191 364 q 180 351 161 351 q 157 350 155 350 l 145 349 l 143 349 l 127 351 q 113 351 100 362 q 88 372 88 394 q 87 398 87 400 l 86 409 l 86 420 l 88 435 q 88 456 102 467 q 116 479 139 479 z"},"$":{"x_min":0,"x_max":554,"ha":554,"o":"m 309 68 l 313 68 q 344 68 371 99 q 398 130 398 161 l 398 178 q 398 213 377 234 q 330 281 312 281 l 310 281 q 306 281 306 224 l 306 161 l 305 156 l 305 145 l 305 139 q 305 137 305 134 l 304 131 l 304 126 l 303 115 l 303 110 l 303 104 l 303 99 l 302 91 l 302 78 q 302 68 309 68 z m 248 444 l 248 470 l 248 473 l 248 478 l 247 483 q 247 485 247 488 l 246 498 q 246 500 246 503 l 246 508 q 246 606 243 606 l 241 606 l 239 606 q 211 606 188 579 q 165 552 165 529 l 165 511 q 167 502 167 499 q 167 473 194 441 q 221 409 241 409 q 248 409 248 444 z m 455 567 q 455 545 431 545 q 418 545 385 572 q 353 598 323 598 q 315 598 306 583 q 297 569 297 498 q 297 427 308 411 q 319 395 372 363 q 424 330 452 294 q 480 258 480 199 q 480 140 445 93 q 423 63 400 51 q 377 39 349 28 q 320 18 311 10 q 302 3 295 -29 q 289 -61 269 -61 q 249 -61 240 -34 q 232 -7 219 4 q 207 16 167 28 q 128 41 111 57 q 76 90 76 130 q 76 157 104 157 q 114 157 154 122 q 194 87 220 87 q 247 87 254 110 q 261 132 261 205 q 261 277 251 295 q 240 312 193 342 q 145 371 125 395 q 86 439 86 497 q 86 555 118 596 q 150 637 202 655 l 215 660 q 237 667 245 672 q 253 677 261 703 q 270 729 286 729 q 310 729 420 636 q 455 607 455 567 z"},"?":{"x_min":0,"x_max":475,"ha":475,"o":"m 209 -6 q 158 -6 158 50 l 158 63 l 159 72 l 161 82 q 161 98 173 109 q 186 119 209 119 l 217 119 q 223 118 233 118 q 243 118 257 106 q 271 95 271 71 l 272 61 l 272 49 l 271 47 l 271 43 q 271 39 271 30 q 271 21 260 9 q 250 -3 234 -3 l 219 -6 z m 219 194 q 182 194 182 266 q 182 321 247 396 q 312 472 312 526 q 312 561 290 585 q 269 610 231 610 q 193 610 159 583 q 103 541 95 541 q 59 541 59 580 l 59 587 q 59 624 111 657 q 163 691 227 691 l 246 691 q 276 691 311 678 q 346 666 370 641 q 417 594 417 529 l 417 520 q 417 443 333 361 q 280 311 268 293 q 256 276 252 235 q 249 194 226 194 z"},"<":{"x_min":0,"x_max":572,"ha":572,"o":"m 499 67 q 499 45 489 45 q 479 45 448 62 q 142 224 102 247 q 63 270 63 297 q 63 323 103 345 q 464 541 489 541 q 500 541 500 517 q 500 482 461 456 q 438 440 303 368 q 167 297 167 294 q 167 288 290 225 q 412 163 445 142 q 499 107 499 67 z"},"'":{"x_min":0,"x_max":242,"ha":242,"o":"m 157 527 q 157 482 144 457 q 138 444 115 444 l 112 444 q 88 444 88 504 l 87 521 l 82 574 l 77 652 l 77 668 q 77 705 119 705 l 134 705 q 171 705 171 679 l 171 656 l 170 653 l 169 637 l 169 634 l 167 614 q 167 611 167 606 q 166 602 165 593 q 164 584 164 581 l 160 554 q 157 530 157 527 z"},"=":{"x_min":0,"x_max":579,"ha":579,"o":"m 499 249 q 526 249 526 229 l 526 205 q 526 185 505 183 q 496 182 289 182 l 202 182 l 180 181 l 83 181 q 56 181 56 202 l 56 226 q 56 246 82 248 q 87 249 299 249 l 424 249 z m 495 434 q 527 434 527 412 l 527 393 q 527 371 517 368 q 506 365 437 365 l 388 365 l 383 366 l 251 366 l 235 365 l 79 365 q 57 365 57 386 l 57 406 q 57 429 74 432 q 83 433 301 433 l 366 434 z"},"a":{"x_min":0,"x_max":511,"ha":511,"o":"m 325 203 l 325 223 q 325 243 312 243 l 304 243 q 243 243 183 201 q 143 173 143 134 l 143 122 q 143 97 161 81 q 178 66 206 66 l 208 66 q 262 66 299 108 q 325 137 325 203 z m 448 43 q 448 8 385 8 q 369 8 346 22 q 323 36 314 36 q 306 36 264 16 q 222 -3 187 -3 l 177 -3 q 118 -3 88 34 q 58 70 58 128 q 58 186 108 228 q 142 257 194 274 q 214 281 250 291 q 287 300 299 308 q 326 323 326 355 q 326 386 303 406 q 281 427 245 427 q 209 427 163 395 q 117 363 100 363 q 67 363 67 399 q 67 434 126 463 q 185 492 251 492 l 263 492 q 340 492 380 449 q 420 407 420 323 l 415 177 q 415 121 423 99 q 424 96 436 76 q 448 56 448 43 z"},"L":{"x_min":0,"x_max":549,"ha":549,"o":"m 119 690 l 142 690 q 186 690 211 676 q 235 662 235 638 q 235 628 225 598 q 214 567 210 528 q 206 489 206 312 q 206 135 215 112 q 229 80 287 80 q 345 80 393 94 q 401 96 439 110 q 478 124 487 124 q 520 124 520 78 q 520 32 500 20 q 479 8 389 8 l 365 8 l 328 7 l 315 7 l 265 6 l 202 6 q 127 6 102 15 q 77 24 77 49 q 77 59 82 73 q 86 88 93 113 q 99 137 99 185 l 99 198 l 99 223 l 101 335 q 101 335 101 443 q 101 538 98 558 q 96 579 83 607 q 71 636 71 646 q 71 670 90 684 q 99 690 119 690 z"},"3":{"x_min":0,"x_max":551,"ha":551,"o":"m 110 544 q 87 544 87 569 q 87 608 147 640 q 207 671 285 671 q 364 671 405 634 q 446 597 446 533 q 446 470 394 413 q 359 375 359 371 q 359 369 396 346 q 479 293 479 208 l 479 192 q 479 154 462 115 q 428 40 345 8 q 298 -9 253 -9 l 237 -9 q 177 -9 121 18 q 95 30 80 49 q 64 67 64 80 l 64 91 q 64 116 98 116 q 104 116 156 91 q 208 65 256 65 q 304 65 340 99 q 375 134 375 188 q 375 243 337 277 q 312 300 259 313 q 206 327 206 327 q 193 335 193 356 q 193 372 241 390 q 290 409 317 441 q 344 473 344 512 q 344 593 244 593 q 209 593 162 568 q 114 544 110 544 z"},";":{"x_min":0,"x_max":295,"ha":295,"o":"m 96 80 q 96 139 148 139 l 159 139 q 186 139 200 125 q 213 111 213 72 l 213 61 q 213 -1 184 -49 q 136 -127 100 -127 l 97 -127 q 83 -127 83 -109 l 83 -106 q 83 -100 94 -87 q 104 -74 117 -53 q 130 -33 130 -2 q 130 3 113 25 q 96 46 96 80 z m 94 412 l 94 421 l 94 423 l 95 434 q 97 439 97 442 q 97 459 110 470 q 123 481 139 481 l 149 482 l 160 482 q 212 482 212 436 l 214 423 l 214 414 q 214 385 202 368 q 190 352 157 352 l 151 352 l 133 354 q 117 354 105 368 q 94 382 94 412 z"},"J":{"x_min":0,"x_max":459,"ha":459,"o":"m 212 637 q 212 690 298 690 l 320 690 q 351 690 370 674 q 389 658 389 642 l 389 634 q 389 628 378 586 q 367 544 365 494 q 362 444 362 324 q 362 204 355 155 q 338 46 268 2 q 222 -27 169 -27 l 158 -27 q 105 -27 62 -2 q 20 22 20 60 q 20 99 57 99 q 70 99 100 84 q 129 69 156 69 q 184 69 206 94 q 229 119 244 171 q 259 222 259 349 q 259 476 253 515 q 246 555 229 590 q 212 626 212 637 z"},"V":{"x_min":0,"x_max":642,"ha":642,"o":"m 496 644 q 509 679 562 679 q 594 679 604 669 q 614 659 614 638 q 614 618 589 579 q 563 540 472 298 q 381 56 379 53 q 357 4 322 4 q 286 4 264 54 q 253 77 167 310 q 82 543 57 579 q 33 615 33 640 q 33 664 50 674 q 61 680 93 680 q 125 680 149 668 q 172 656 180 639 q 188 622 191 592 q 194 562 201 531 q 209 500 269 330 q 328 160 336 160 q 344 160 403 329 q 462 498 474 537 q 486 576 489 605 q 493 634 496 644 z"},"\"":{"x_min":0,"x_max":397,"ha":397,"o":"m 82 481 q 81 488 81 491 l 80 498 l 79 511 l 78 514 l 76 541 l 76 544 l 75 558 l 74 561 l 73 581 q 72 584 72 588 l 68 646 q 68 650 68 653 l 68 663 q 68 692 77 700 q 87 708 103 708 l 105 709 l 109 709 l 122 710 l 125 709 q 162 709 162 678 l 162 669 l 162 666 l 159 621 q 156 600 156 590 l 154 580 q 153 573 153 570 l 152 560 q 150 550 150 547 l 147 520 q 147 485 136 463 q 129 450 105 450 q 82 450 82 481 z m 309 496 q 309 450 278 450 l 272 450 q 249 450 249 509 l 247 542 l 246 545 l 245 559 l 245 562 l 243 582 q 243 585 243 589 l 241 605 l 241 612 l 239 648 l 239 654 l 238 664 l 238 670 q 238 693 248 702 q 257 710 281 710 l 293 710 q 299 709 302 709 q 327 709 327 686 l 327 665 l 327 661 l 325 639 l 323 619 l 322 606 q 315 555 315 546 l 313 532 q 312 522 312 519 l 310 509 q 309 499 309 496 z"},"7":{"x_min":0,"x_max":548,"ha":548,"o":"m 409 428 q 307 208 267 76 q 251 24 245 12 q 233 -12 206 -12 l 195 -12 q 176 -12 165 -5 q 154 1 154 24 q 154 85 261 305 q 369 524 369 546 q 369 568 352 573 q 336 579 284 579 q 232 579 205 574 q 178 570 142 563 q 106 556 98 556 q 63 556 63 591 q 63 625 75 639 q 97 667 140 667 l 150 667 l 172 665 q 188 664 208 664 l 280 665 q 416 665 452 659 q 487 653 487 626 q 487 600 464 547 q 440 494 409 428 z"},"S":{"x_min":0,"x_max":557,"ha":557,"o":"m 52 133 q 52 167 80 167 q 93 167 129 135 q 165 104 199 86 q 232 68 283 68 q 333 68 367 97 q 402 125 402 179 q 402 220 357 256 q 332 276 241 318 q 150 359 109 403 q 68 446 68 520 q 68 593 127 642 q 187 692 288 692 q 389 692 434 665 q 455 652 467 629 q 479 605 479 586 q 479 543 448 543 q 437 543 405 570 q 372 596 342 609 q 311 622 270 622 q 229 622 198 596 q 166 571 166 530 q 166 489 206 457 q 232 435 324 394 q 416 353 453 315 q 503 263 503 200 l 503 183 q 503 151 490 116 q 476 81 446 54 q 383 -2 277 -2 q 249 -2 184 10 q 120 21 103 31 q 86 41 69 67 q 52 94 52 119 z"},"}":{"x_min":0,"x_max":383,"ha":383,"o":"m 234 124 l 237 24 q 237 -108 143 -144 q 111 -155 84 -155 q 57 -155 57 -146 q 57 -122 93 -95 q 128 -68 140 -42 q 152 -15 152 57 l 150 94 q 150 106 150 148 q 150 231 208 275 l 218 282 q 234 292 234 293 q 234 297 220 306 q 180 332 166 366 q 152 399 152 477 l 154 575 q 154 610 141 633 q 128 656 94 681 q 59 707 59 730 q 59 742 77 742 l 87 742 q 120 742 152 728 q 185 714 205 689 q 239 648 239 542 l 235 443 q 235 391 249 368 q 263 345 294 329 q 325 312 325 295 q 325 277 292 259 q 260 241 247 215 q 234 188 234 124 z"},"Z":{"x_min":0,"x_max":600,"ha":600,"o":"m 94 581 q 64 581 64 623 q 64 665 110 679 q 131 686 275 686 l 293 686 l 311 686 l 329 686 q 479 686 503 682 q 541 677 541 654 q 541 621 500 557 q 458 493 328 310 q 198 127 198 109 q 198 90 211 83 q 225 77 301 77 q 378 77 477 105 q 513 116 526 116 q 556 116 556 74 q 556 33 510 17 q 479 6 349 6 l 170 6 q 90 6 70 14 q 50 22 50 41 q 50 75 223 328 q 396 582 396 599 q 396 617 314 617 q 233 617 167 599 q 101 581 94 581 z"},"x":{"x_min":0,"x_max":514,"ha":514,"o":"m 243 178 q 231 178 188 99 q 175 77 168 52 q 161 26 158 22 q 144 2 85 2 q 48 2 48 18 q 48 22 122 124 q 195 226 195 244 q 195 261 132 353 l 58 460 q 58 476 69 482 q 80 489 125 489 l 138 489 q 180 489 195 467 q 199 461 206 440 q 212 418 222 401 q 257 333 267 333 q 280 333 317 399 q 330 422 335 445 q 340 468 346 475 q 358 488 404 488 q 450 488 450 474 q 450 463 384 377 q 318 291 318 262 q 318 252 365 180 q 412 108 439 76 q 466 44 466 32 l 466 23 q 466 3 409 3 q 352 3 338 15 q 325 27 318 50 q 310 73 302 89 q 258 178 243 178 z"},")":{"x_min":0,"x_max":363,"ha":363,"o":"m 287 304 l 287 282 q 287 220 271 151 q 236 0 138 -109 q 99 -153 70 -153 q 52 -153 52 -135 q 52 -132 97 -60 q 141 12 159 68 q 192 170 192 295 q 192 492 111 625 q 55 716 55 720 q 55 739 73 739 q 104 739 141 697 q 287 530 287 304 z"},"&":{"x_min":0,"x_max":711,"ha":711,"o":"m 282 71 l 301 71 q 337 71 367 93 q 396 116 396 123 q 396 130 322 227 q 248 324 241 324 l 238 324 q 213 324 179 276 q 158 248 158 211 l 158 199 q 158 150 194 110 q 230 71 282 71 z m 378 571 q 378 593 359 612 q 340 631 320 631 l 310 631 q 286 631 266 609 q 247 586 247 557 l 247 542 q 247 502 279 454 q 293 434 300 434 l 303 434 q 317 434 348 469 q 378 504 378 533 l 380 546 l 380 554 l 379 557 l 379 562 q 378 568 378 571 z m 253 19 q 172 19 122 64 q 94 88 80 122 q 65 156 65 180 l 65 195 q 65 272 146 347 q 196 393 196 407 q 196 415 177 464 q 159 513 159 542 q 159 604 195 642 q 231 681 290 681 q 348 681 388 643 q 429 604 429 545 q 429 517 410 440 q 391 363 391 345 q 391 326 410 305 q 430 284 458 284 q 487 284 520 312 q 553 341 581 341 q 608 341 608 316 q 608 307 599 288 l 587 268 q 563 222 563 166 q 563 136 602 99 q 640 62 640 56 q 640 39 603 39 q 597 39 570 42 q 543 45 516 45 l 457 42 l 419 43 q 387 43 341 31 q 294 19 253 19 z"},"_":{"x_min":0,"x_max":541,"ha":541,"o":"m 4 -111 l 4 -89 q 4 -74 113 -74 l 161 -74 l 167 -75 l 516 -76 q 538 -76 538 -96 l 538 -117 q 538 -132 452 -132 l 345 -132 l 339 -131 l 268 -131 l 256 -131 l 91 -131 l 79 -130 l 31 -130 q 4 -130 4 -111 z"},"v":{"x_min":0,"x_max":505,"ha":505,"o":"m 68 483 l 79 483 q 137 483 156 447 q 159 441 169 394 q 180 346 218 239 q 255 131 263 131 q 273 131 317 257 q 361 382 366 416 q 371 449 375 455 q 389 483 422 483 l 442 483 q 478 483 478 456 l 478 449 q 478 435 450 388 q 422 341 371 208 q 319 75 305 45 q 285 3 252 3 q 219 3 201 40 q 189 63 135 203 q 82 342 44 402 q 28 429 28 444 l 28 452 q 28 483 68 483 z"},"O":{"x_min":0,"x_max":729,"ha":729,"o":"m 541 319 l 541 363 q 541 469 492 551 q 470 588 436 609 q 402 629 366 629 l 359 629 q 326 629 294 610 q 231 571 206 474 q 190 411 190 350 l 190 341 q 190 223 238 142 q 259 108 291 86 q 323 64 359 64 l 373 64 q 409 64 442 86 q 474 108 497 146 q 541 220 541 319 z m 82 319 l 82 354 q 82 425 108 496 q 160 632 265 681 q 312 703 370 703 l 390 703 q 390 703 392 703 q 446 703 496 675 q 596 619 633 503 q 655 436 655 363 l 655 351 q 655 201 578 98 q 539 46 486 19 q 433 -8 376 -8 l 355 -8 q 242 -8 162 85 q 124 129 103 196 q 82 262 82 319 z"},"(":{"x_min":0,"x_max":365,"ha":365,"o":"m 312 725 q 312 715 269 646 q 226 576 209 522 q 175 418 175 292 q 175 90 257 -42 q 311 -129 311 -137 q 311 -152 287 -152 q 263 -152 218 -102 q 134 -9 98 127 q 77 206 77 276 l 77 309 q 77 379 98 458 q 133 588 219 688 q 264 739 288 739 q 312 739 312 725 z"},"C":{"x_min":0,"x_max":652,"ha":652,"o":"m 370 688 q 404 688 464 677 q 524 666 541 657 q 557 648 575 622 q 592 596 592 563 q 592 530 564 530 q 553 530 516 558 q 478 586 443 601 q 407 615 363 615 q 273 615 218 539 q 163 463 163 338 q 163 286 178 234 q 208 129 295 91 q 329 76 376 76 q 424 76 479 102 q 493 108 528 129 q 563 150 578 150 q 601 150 601 126 q 601 111 584 86 q 567 62 529 41 q 455 -1 366 -1 l 350 -1 q 220 -1 137 94 q 54 188 54 337 l 54 354 q 54 419 76 480 q 123 611 235 662 q 292 688 354 688 z"},"W":{"x_min":0,"x_max":899,"ha":899,"o":"m 55 617 q 55 668 92 668 q 141 668 163 625 q 172 607 184 549 q 196 491 219 401 q 267 213 284 213 q 295 213 344 397 q 353 431 371 513 q 390 596 394 606 q 415 656 454 656 q 493 656 516 609 q 526 586 538 535 q 549 483 591 353 q 632 222 636 222 q 653 222 700 396 q 719 464 735 531 q 750 598 756 611 q 774 657 817 657 q 849 657 849 608 q 849 584 830 536 q 812 487 807 471 q 802 455 764 306 q 726 158 709 117 q 693 77 675 61 q 656 46 642 46 q 606 46 572 124 q 547 178 503 317 q 458 456 451 456 q 443 456 397 309 q 351 162 329 111 q 297 39 260 39 q 246 39 227 54 q 208 69 199 94 q 190 120 171 192 q 151 263 141 301 q 130 338 112 403 q 94 467 74 530 q 55 593 55 617 z"},"A":{"x_min":0,"x_max":659,"ha":659,"o":"m 398 286 q 398 309 358 436 q 318 563 317 563 q 316 563 314 557 q 313 551 272 428 q 231 305 231 284 l 231 281 q 231 273 259 273 l 262 273 l 266 273 l 314 274 q 398 274 398 283 z m 335 687 q 371 687 398 628 q 411 601 482 398 q 554 196 582 146 q 609 97 609 82 q 609 44 582 28 q 566 20 521 20 q 494 20 481 40 q 476 48 472 71 q 467 94 463 108 q 443 184 421 200 q 400 216 312 216 q 224 216 205 199 q 187 183 168 114 q 163 93 159 68 q 155 42 151 35 q 142 19 111 19 q 49 19 49 82 q 49 104 66 130 q 102 185 175 393 q 249 602 260 628 q 286 687 323 687 z"},"f":{"x_min":0,"x_max":364,"ha":364,"o":"m 231 48 q 231 2 156 2 l 146 2 q 122 2 105 21 q 89 41 89 67 q 89 75 97 102 q 104 129 108 156 q 111 182 111 260 q 111 337 103 367 q 94 396 76 414 q 58 432 58 444 q 58 447 97 502 q 108 517 122 571 q 136 625 158 654 q 205 712 278 712 l 289 712 q 319 712 346 701 q 372 690 372 671 q 372 632 330 632 l 277 639 q 249 639 231 616 q 214 593 214 552 q 214 510 255 481 q 297 454 297 438 q 297 421 269 409 q 241 396 227 364 q 213 331 213 187 q 213 139 217 120 q 220 102 226 82 q 231 62 231 48 z"},"Q":{"x_min":0,"x_max":734,"ha":734,"o":"m 187 375 l 187 337 q 187 227 234 154 q 258 116 292 95 q 326 75 356 75 l 362 75 q 386 75 401 90 q 407 95 419 117 q 431 139 442 150 q 454 162 478 182 q 502 202 505 206 q 541 255 541 357 l 541 375 q 541 480 492 555 q 444 628 371 628 l 370 628 q 295 628 245 562 q 220 528 203 476 q 187 424 187 375 z m 654 -72 l 654 -75 q 654 -88 626 -88 l 594 -88 q 503 -88 392 -48 q 281 -7 213 56 q 146 119 114 204 q 82 288 82 376 l 82 390 q 82 450 101 508 q 137 621 233 671 q 288 699 349 699 l 375 699 q 497 699 583 582 q 646 498 646 341 q 646 274 624 209 q 603 145 569 95 q 536 46 536 36 q 536 18 595 -23 q 654 -64 654 -72 z"},"w":{"x_min":0,"x_max":735,"ha":735,"o":"m 39 440 q 39 478 83 478 q 128 478 146 435 q 154 418 165 371 q 175 323 184 292 q 220 163 234 163 q 251 163 286 285 q 292 308 304 368 q 316 428 322 438 q 339 472 389 472 q 428 472 449 373 q 457 336 468 296 q 505 163 519 163 q 535 163 571 282 q 584 326 596 378 q 607 431 613 443 q 629 478 661 478 q 699 478 699 437 q 699 415 680 375 q 662 336 626 231 l 603 158 q 576 75 574 70 q 552 20 520 20 q 488 20 462 72 q 448 100 411 207 q 374 314 366 314 q 361 314 325 210 q 289 105 267 63 q 244 21 220 21 q 203 21 186 35 q 169 50 160 72 q 151 95 117 203 q 84 312 61 360 q 39 408 39 428 z"},"-":{"x_min":0,"x_max":364,"ha":364,"o":"m 296 312 q 320 312 320 284 l 320 281 l 320 274 q 320 241 301 236 q 290 233 174 233 l 167 233 l 156 233 l 146 233 l 135 232 l 127 232 l 117 232 l 106 232 l 92 231 l 68 231 q 44 231 44 256 l 44 266 l 45 269 l 45 275 l 46 288 q 46 305 65 308 q 85 311 187 311 l 254 312 z"},"E":{"x_min":0,"x_max":584,"ha":584,"o":"m 213 456 q 213 412 289 412 q 314 412 351 420 q 387 429 390 429 q 420 429 435 403 q 441 392 441 359 q 441 327 428 310 q 416 293 399 293 q 383 293 351 302 q 318 311 284 311 q 250 311 228 298 q 207 285 207 251 q 207 146 229 107 q 247 78 304 78 q 361 78 392 82 q 422 87 457 95 q 492 104 505 104 q 527 104 527 71 q 527 38 497 22 q 466 6 358 6 l 321 6 q 160 6 108 22 q 77 32 77 60 q 77 73 88 101 q 100 129 106 183 q 112 237 112 363 q 112 489 108 527 q 104 564 91 601 q 78 638 78 638 q 78 661 113 668 q 197 685 380 685 q 461 685 481 674 q 508 660 508 618 q 508 595 473 595 q 470 595 426 604 q 382 612 318 612 q 318 612 316 613 q 253 613 236 591 q 213 561 213 456 z"},"s":{"x_min":0,"x_max":450,"ha":450,"o":"m 382 413 q 382 383 356 383 q 352 383 305 407 q 259 432 223 432 q 188 432 168 415 q 149 397 149 372 q 149 346 183 324 q 200 312 266 285 q 333 257 360 233 q 401 196 401 138 q 401 79 356 39 q 310 -2 235 -2 l 223 -2 q 90 -2 60 48 q 47 68 47 88 q 47 125 71 125 q 77 125 128 92 q 180 60 235 60 q 265 60 286 78 q 308 97 308 127 q 308 156 271 181 q 257 190 189 220 q 121 250 90 280 q 60 311 60 364 q 60 417 104 456 q 148 494 214 494 l 228 494 q 304 494 343 476 q 382 459 382 413 z"},">":{"x_min":0,"x_max":571,"ha":571,"o":"m 407 296 q 407 297 272 368 q 138 439 117 453 q 73 483 73 521 q 73 542 85 542 q 97 542 146 515 q 194 488 245 462 q 296 437 309 430 q 322 423 387 391 q 451 358 479 341 q 508 324 508 299 q 508 275 483 258 q 458 241 340 180 q 223 120 159 83 q 95 47 88 47 l 81 47 q 73 47 73 63 l 73 72 q 73 107 123 140 q 154 159 280 224 q 407 290 407 296 z"},"l":{"x_min":0,"x_max":294,"ha":294,"o":"m 154 2 q 79 2 79 50 q 79 59 85 84 q 90 110 90 178 l 91 196 l 91 214 l 92 259 l 92 315 l 93 343 q 93 554 90 583 q 88 612 78 641 q 67 670 67 685 q 67 712 147 712 l 150 712 q 185 712 190 678 q 191 668 191 544 l 191 369 l 192 323 l 194 270 q 194 268 194 266 q 194 152 221 88 q 233 58 234 41 q 234 2 162 2 z"},"8":{"x_min":0,"x_max":555,"ha":555,"o":"m 396 161 l 396 173 q 396 227 347 273 q 297 318 249 318 l 245 318 q 216 318 188 281 q 159 243 159 205 l 159 184 q 159 133 198 98 q 236 63 281 63 l 294 63 q 337 63 367 93 q 396 123 396 161 z m 381 509 l 381 519 q 381 562 351 593 q 321 623 277 623 l 267 623 q 232 623 206 598 q 179 574 179 540 l 179 526 q 179 484 215 452 q 263 410 297 410 l 304 410 q 333 410 357 444 q 381 478 381 509 z m 485 204 l 485 183 q 485 148 468 110 q 432 32 353 6 q 312 -8 270 -8 q 183 -8 126 41 q 70 89 70 162 l 70 184 q 70 229 92 264 q 113 299 137 321 l 176 358 q 176 362 149 386 q 92 438 92 514 q 92 590 147 643 q 203 695 279 695 l 290 695 q 369 695 418 650 q 466 605 466 535 q 466 466 413 411 l 376 373 q 376 369 393 357 q 485 293 485 204 z"},"\\":{"x_min":0,"x_max":422,"ha":422,"o":"m 50 734 l 67 734 q 92 734 111 690 q 116 681 241 359 q 366 38 381 -1 q 396 -40 396 -52 q 396 -63 359 -63 q 334 -63 308 -5 q 307 -1 279 70 q 250 142 247 150 q 244 159 220 222 q 196 286 113 497 q 29 708 29 724 q 29 734 50 734 z"},"e":{"x_min":0,"x_max":512,"ha":512,"o":"m 366 326 l 366 334 q 366 365 340 395 q 313 425 275 425 l 256 425 q 250 424 247 424 q 213 424 182 390 q 152 355 152 321 l 152 318 q 152 306 178 306 l 202 306 l 205 307 l 255 308 q 366 308 366 326 z m 457 103 q 457 68 399 36 q 340 3 282 3 q 176 3 115 66 q 54 129 54 235 q 54 342 122 419 q 152 453 196 473 q 241 493 288 493 l 299 493 q 369 493 413 445 q 458 397 458 330 q 458 289 424 273 q 399 262 305 255 q 210 249 191 243 q 152 230 152 196 q 152 150 188 113 q 225 77 281 77 q 316 77 373 99 q 430 121 435 121 q 457 121 457 103 z"},"b":{"x_min":0,"x_max":555,"ha":555,"o":"m 192 264 l 192 243 q 192 148 210 111 q 219 91 240 78 q 261 64 280 64 l 288 64 l 292 64 q 337 64 366 117 q 396 169 396 242 l 396 260 q 396 329 366 377 q 337 426 295 426 l 288 426 q 268 426 245 412 q 223 399 208 370 q 192 341 192 264 z m 64 671 q 64 712 125 712 q 158 712 169 698 q 180 684 180 636 l 178 569 l 178 523 q 178 489 183 477 q 188 464 208 464 q 215 464 245 472 q 276 480 311 480 q 346 480 384 459 q 421 438 449 400 q 495 336 495 236 q 495 136 445 71 q 419 38 385 20 q 350 2 313 2 l 303 2 q 282 2 237 17 q 191 32 186 32 q 180 32 165 26 q 150 21 134 21 q 117 21 108 36 q 98 52 98 179 q 98 196 98 213 l 97 271 l 96 294 q 94 329 94 340 l 90 453 l 88 485 q 87 507 87 545 q 87 583 76 618 q 64 653 64 671 z"},"%":{"x_min":0,"x_max":798,"ha":798,"o":"m 670 175 l 669 193 q 669 227 650 254 q 632 282 612 282 l 604 282 q 584 282 566 254 q 547 226 547 188 l 546 181 l 545 170 l 545 149 q 545 112 561 77 q 577 42 604 42 l 612 42 q 637 42 654 76 q 670 109 670 154 l 670 172 z m 270 539 q 270 573 252 600 q 233 628 212 628 l 207 628 q 188 628 168 602 q 148 577 148 532 l 148 529 l 147 525 l 147 511 l 147 497 l 147 493 l 148 482 l 149 469 q 149 434 173 403 q 186 386 205 386 l 210 386 q 235 386 252 418 q 270 449 270 479 q 271 486 271 489 l 271 503 l 271 518 l 271 521 l 271 529 q 270 536 270 539 z m 736 151 q 736 89 695 42 q 654 -6 600 -6 l 590 -6 l 585 -5 q 533 -5 499 43 q 466 92 466 156 l 466 167 q 466 235 500 287 q 517 314 544 330 q 572 346 598 346 l 618 346 q 670 346 704 297 q 737 249 737 185 l 737 168 q 736 156 736 151 z m 201 -7 l 193 -7 q 170 -7 170 2 q 170 7 192 45 q 374 366 548 632 q 580 681 607 681 l 616 681 q 638 681 638 671 q 638 637 265 48 q 229 -7 201 -7 z m 344 532 l 344 508 q 344 438 304 386 q 265 334 213 334 l 193 334 q 146 334 107 382 q 68 431 68 499 l 68 526 q 68 597 108 643 q 148 689 200 689 l 206 689 l 210 688 q 270 688 307 642 q 344 596 344 532 z"},"m":{"x_min":0,"x_max":817,"ha":817,"o":"m 119 464 q 133 464 166 449 q 200 434 222 434 l 235 438 l 267 449 q 295 458 329 458 q 363 458 385 448 q 407 439 425 425 q 444 411 451 411 q 459 411 508 444 q 556 477 594 477 l 613 477 q 647 477 676 456 q 704 435 718 401 q 732 367 736 302 l 738 281 q 739 267 739 239 l 740 197 q 742 162 750 129 q 759 97 759 89 q 759 51 742 33 q 724 14 683 14 q 663 14 655 32 q 652 40 652 83 l 649 238 q 649 325 630 363 q 610 401 560 401 q 536 401 517 384 q 499 368 489 338 q 472 281 472 160 q 472 143 477 112 q 482 82 482 75 q 482 28 405 28 q 364 28 352 39 q 339 49 339 60 q 339 70 344 102 q 348 134 348 219 q 348 304 335 354 q 323 404 283 404 q 256 404 229 385 q 201 366 187 327 q 173 288 173 110 q 173 43 172 40 q 166 16 129 16 q 92 16 76 35 q 61 54 61 72 q 61 91 70 122 q 79 153 81 190 q 83 227 83 309 l 86 435 q 86 464 119 464 z"},"#":{"x_min":0,"x_max":593,"ha":593,"o":"m 372 417 l 372 419 q 372 425 344 425 l 328 425 l 325 425 l 317 425 l 312 424 l 307 424 l 288 422 l 285 422 l 280 421 q 255 421 250 410 q 220 334 220 273 l 220 269 q 220 264 233 264 l 238 264 l 240 265 l 256 266 l 270 267 l 275 268 l 278 268 l 305 271 q 335 271 341 282 q 342 284 350 312 l 352 327 q 354 337 363 371 q 372 405 372 417 z m 214 186 q 208 179 195 113 q 182 46 171 28 q 160 10 137 10 q 114 10 114 31 q 114 33 124 89 q 135 146 135 166 q 135 187 121 194 q 61 228 61 230 q 61 251 80 261 l 93 266 l 108 269 l 124 271 q 149 277 159 290 q 178 315 178 382 q 178 399 172 406 q 166 413 147 416 l 133 418 q 110 421 104 424 q 87 431 87 448 q 87 466 97 473 q 107 481 145 486 q 183 492 195 504 q 207 517 218 578 q 229 639 232 647 q 242 675 262 675 l 276 675 q 294 675 294 655 q 294 634 284 579 q 274 525 274 513 q 274 502 283 497 q 292 492 334 492 q 375 492 382 500 q 389 509 400 567 q 411 625 419 644 q 431 672 461 672 q 482 672 482 649 q 482 647 473 598 q 463 549 463 529 q 463 509 471 502 q 479 496 509 487 q 538 478 538 465 l 538 452 q 538 430 493 423 q 448 416 440 408 q 417 384 417 299 q 417 277 464 272 q 511 267 511 244 q 511 221 493 212 q 489 210 452 205 q 415 201 403 184 q 391 167 380 107 q 369 47 364 37 q 354 14 331 14 q 302 14 302 42 l 325 174 q 325 189 315 194 q 306 199 265 199 q 224 199 214 186 z"},",":{"x_min":0,"x_max":280,"ha":280,"o":"m 85 70 q 85 127 139 127 l 150 127 q 202 127 202 73 l 203 65 l 203 46 q 203 -21 162 -81 q 120 -141 87 -141 q 72 -141 72 -123 l 72 -121 q 72 -115 86 -96 q 121 -49 121 -17 q 121 -11 98 18 q 85 34 85 70 z"},"n":{"x_min":0,"x_max":565,"ha":565,"o":"m 188 70 q 188 16 115 16 q 82 16 69 24 q 56 32 56 50 q 56 68 66 98 q 82 142 82 270 q 82 398 77 421 q 73 444 73 448 q 73 473 129 473 q 150 473 175 453 q 199 434 210 434 q 221 434 242 445 q 263 457 289 467 q 315 477 351 477 q 483 477 483 309 q 483 293 488 219 q 492 146 499 126 q 514 81 514 74 q 514 43 500 33 q 486 22 448 22 q 411 22 397 38 q 391 46 391 79 l 392 89 q 392 91 393 111 l 393 163 q 393 302 373 354 q 350 411 293 411 q 263 411 238 394 q 213 378 202 358 q 179 316 179 175 q 179 128 183 102 q 188 76 188 70 z"},"h":{"x_min":0,"x_max":563,"ha":563,"o":"m 378 292 q 378 354 362 381 q 345 408 311 408 q 276 408 251 388 q 225 368 209 334 q 192 300 192 220 q 192 139 199 103 q 206 66 206 59 q 206 35 190 21 q 173 7 141 7 q 109 7 93 15 q 76 23 76 57 q 76 61 83 94 q 91 127 94 156 q 96 186 96 277 q 96 368 92 430 l 90 461 q 88 503 88 557 q 88 612 79 641 q 70 670 70 675 q 70 696 117 696 q 165 696 175 670 q 186 645 186 552 q 186 460 208 460 q 210 460 253 476 q 296 491 330 491 q 363 491 395 473 q 427 455 449 417 q 471 379 471 216 q 471 138 482 102 q 493 65 493 58 q 493 29 478 19 q 463 9 431 9 q 399 9 385 22 q 371 35 371 63 l 372 75 q 377 145 377 242 l 378 259 q 378 275 378 292 z"},"z":{"x_min":0,"x_max":482,"ha":482,"o":"m 114 490 l 126 490 l 139 490 l 255 489 q 395 489 412 485 q 429 481 429 458 q 429 421 305 264 q 181 107 181 84 q 181 71 243 71 q 306 71 352 83 q 398 94 413 94 q 441 94 441 59 q 441 18 402 10 q 381 5 229 5 l 203 5 l 163 5 l 111 5 q 44 5 44 28 q 44 56 63 86 q 83 116 188 258 q 294 399 294 413 q 294 424 244 424 q 193 424 152 417 l 141 414 l 120 409 q 93 403 82 403 q 54 403 54 440 q 54 464 70 477 q 87 490 114 490 z"},"B":{"x_min":0,"x_max":624,"ha":624,"o":"m 456 191 l 456 206 q 456 265 409 295 q 362 326 282 326 l 277 326 l 272 325 q 227 325 217 319 q 208 312 208 280 l 208 199 q 208 110 216 96 q 224 83 260 83 q 269 82 273 82 l 297 81 l 301 81 q 376 81 416 111 q 456 142 456 191 z m 303 617 l 283 617 q 228 617 218 603 q 208 589 208 501 l 208 475 l 208 459 l 208 441 q 208 416 215 409 q 223 403 250 403 l 266 403 l 270 403 l 294 404 q 298 405 302 405 q 357 405 392 437 q 427 468 427 511 l 427 523 q 427 567 393 592 q 358 617 303 617 z m 113 516 q 113 574 110 594 q 106 614 97 637 q 88 659 88 666 q 88 684 112 688 q 136 692 232 692 l 254 693 l 312 693 q 459 693 504 600 q 519 568 519 525 q 519 451 459 402 q 429 376 429 373 q 429 369 446 361 q 496 338 525 298 q 554 257 554 204 q 554 106 482 52 q 451 28 407 17 q 363 6 281 6 l 237 6 l 226 7 q 138 7 114 10 q 89 14 89 33 q 89 42 99 66 q 108 90 112 115 q 115 139 115 220 l 114 268 q 114 279 114 292 l 112 338 q 110 374 110 397 l 111 444 l 112 456 q 112 468 112 480 l 113 492 z"},"K":{"x_min":0,"x_max":657,"ha":657,"o":"m 149 687 l 166 687 q 202 687 220 672 q 238 658 238 643 q 238 628 234 612 l 231 598 q 214 535 214 472 q 214 409 235 409 q 260 409 352 520 q 404 582 428 636 q 438 660 453 672 q 467 684 501 684 q 554 684 554 661 q 554 652 451 536 q 349 419 349 390 q 349 368 467 202 q 507 145 554 88 q 602 31 602 27 q 602 7 543 7 q 484 7 458 32 q 456 35 420 100 q 384 165 337 228 q 291 291 264 291 q 245 291 232 264 q 220 236 220 193 q 220 150 228 110 q 236 71 236 55 q 236 39 216 22 q 196 6 156 6 q 117 6 103 18 q 89 29 89 56 l 94 71 l 99 85 q 104 101 107 117 q 110 133 110 210 l 107 309 q 106 335 106 348 l 106 368 q 105 381 105 394 q 105 400 105 407 q 105 427 107 465 l 108 525 q 108 567 98 600 q 88 632 88 637 q 88 665 103 676 q 118 687 149 687 z"},"R":{"x_min":0,"x_max":643,"ha":643,"o":"m 213 394 q 213 369 250 369 l 274 369 q 342 369 386 403 q 430 437 430 492 l 430 515 q 430 558 398 586 q 367 615 316 615 l 287 615 q 244 615 231 603 q 218 591 218 559 l 217 550 q 217 543 217 537 l 216 533 l 216 524 l 216 512 l 216 503 l 213 446 l 213 438 l 213 421 z m 103 664 q 103 684 130 688 q 157 692 243 692 l 286 692 q 407 692 461 653 q 527 605 527 508 q 527 427 458 363 q 421 329 421 319 q 421 297 467 214 q 513 131 532 107 q 580 47 580 36 l 580 27 q 580 12 532 12 q 484 12 457 45 q 444 60 406 136 q 369 213 340 249 q 312 284 274 284 q 250 284 232 249 q 225 234 225 197 q 225 159 236 117 q 247 74 247 64 q 247 40 227 25 q 208 11 182 11 l 168 11 q 93 11 93 59 l 93 72 q 93 80 104 106 q 114 133 116 150 q 117 167 117 260 l 121 488 q 121 586 116 608 q 111 629 107 646 q 103 662 103 664 z"},"T":{"x_min":0,"x_max":596,"ha":596,"o":"m 421 689 q 500 689 516 683 q 548 671 548 625 l 548 613 q 548 574 527 574 q 517 574 478 587 q 439 601 406 601 q 374 601 363 574 q 353 548 353 473 l 352 445 l 351 361 l 351 271 q 351 142 364 99 q 378 57 378 45 q 378 22 350 9 q 337 2 294 2 q 251 2 233 15 q 214 27 214 54 q 214 60 226 88 q 237 116 241 148 q 245 181 245 357 q 245 533 239 559 q 232 584 220 592 q 208 599 183 599 q 159 599 121 586 q 83 573 72 573 q 51 573 51 608 l 51 621 q 51 658 76 676 q 91 687 153 687 l 178 688 l 293 689 z"},"P":{"x_min":0,"x_max":588,"ha":588,"o":"m 261 614 q 230 614 221 592 q 213 570 213 463 q 213 459 213 455 l 212 445 q 212 441 212 437 l 212 427 q 212 423 212 418 l 211 409 q 211 405 211 400 l 211 388 l 211 375 q 211 345 255 345 l 271 345 q 337 345 379 384 q 422 423 422 488 l 422 507 q 422 558 390 587 q 358 616 310 616 l 289 616 l 285 616 l 277 616 q 265 614 261 614 z m 99 655 q 99 670 128 675 q 208 687 310 687 l 343 687 q 426 687 478 647 q 537 602 537 513 q 537 425 472 363 q 444 335 410 321 q 376 308 327 297 q 278 287 256 272 q 211 243 210 185 q 210 167 221 127 q 232 88 232 77 q 232 45 200 21 q 179 6 139 6 l 128 6 l 118 6 q 97 6 86 17 q 75 28 75 44 q 75 60 85 86 q 104 135 104 221 l 104 282 l 104 316 l 105 328 q 105 339 105 350 l 107 395 q 109 429 109 439 l 111 527 q 111 596 105 620 q 99 644 99 655 z"},"|":{"x_min":0,"x_max":344,"ha":344,"o":"m 179 -171 l 161 -171 q 137 -171 137 -137 l 136 -98 l 136 20 l 135 30 l 135 208 l 135 247 l 135 532 q 135 700 138 719 q 141 737 166 737 l 184 737 q 205 737 208 713 q 210 695 210 576 l 210 222 q 210 -117 208 -144 q 206 -171 179 -171 z"},"t":{"x_min":0,"x_max":370,"ha":370,"o":"m 62 479 q 94 494 100 502 q 105 511 115 548 q 124 585 131 597 q 146 622 166 622 q 186 622 194 610 q 202 599 209 564 q 216 530 230 514 q 244 499 278 490 q 312 481 312 460 q 312 434 271 422 q 229 410 220 387 q 207 353 207 248 q 207 143 223 114 q 240 85 282 78 q 324 70 324 50 q 324 30 305 19 q 277 3 235 3 q 157 3 128 66 q 108 107 108 248 l 108 268 l 108 288 l 107 328 q 107 373 95 397 q 88 411 65 422 q 42 434 42 452 q 42 471 62 479 z"},"M":{"x_min":0,"x_max":841,"ha":841,"o":"m 110 24 q 91 24 76 34 q 62 44 62 57 q 62 69 74 106 q 86 143 94 221 q 101 299 101 421 q 101 543 98 581 l 95 604 l 89 642 q 89 669 124 669 q 203 669 249 602 q 272 568 336 411 q 400 254 406 242 l 417 226 q 429 226 500 395 q 572 565 594 600 q 617 636 647 654 q 676 671 702 671 q 751 671 751 639 l 749 620 l 743 575 q 740 542 740 374 q 740 206 758 128 l 775 71 l 775 55 l 769 41 q 752 21 716 21 q 679 21 659 42 q 639 63 639 92 l 640 112 l 642 133 q 645 167 645 283 q 645 494 627 494 q 615 494 539 305 q 463 116 453 97 q 431 57 404 57 q 379 57 359 104 q 348 128 275 313 q 203 497 189 497 q 172 497 172 170 q 172 146 173 124 l 175 85 q 175 24 110 24 z"},"g":{"x_min":0,"x_max":560,"ha":560,"o":"m 375 237 l 375 286 q 375 342 351 394 q 344 410 323 425 q 303 440 288 440 l 276 440 q 242 440 209 401 q 175 361 175 307 l 175 259 q 175 196 206 149 q 236 101 270 101 l 276 101 q 316 101 346 139 q 375 178 375 237 z m 459 140 l 465 87 q 470 48 470 35 l 470 9 q 470 -73 413 -128 q 356 -184 268 -184 l 253 -184 q 192 -184 136 -153 q 94 -129 94 -101 q 94 -74 129 -74 q 135 -74 187 -90 q 238 -105 268 -105 q 324 -105 358 -68 q 392 -31 392 38 q 392 53 383 53 q 379 53 367 46 q 305 25 286 25 q 286 25 285 25 q 284 25 283 25 q 143 25 98 175 q 82 229 82 280 l 82 295 q 82 396 135 455 q 188 515 269 515 q 305 515 325 506 q 345 498 363 488 q 380 478 385 478 q 389 478 399 485 q 409 493 426 493 q 442 493 456 483 q 470 473 470 445 q 470 417 462 357 q 454 297 454 247 q 454 198 459 140 z"},"j":{"x_min":0,"x_max":284,"ha":284,"o":"m 29 -196 q -22 -196 -22 -158 q -22 -141 -5 -129 q 0 -126 34 -119 q 69 -111 83 -92 q 105 -62 105 15 l 106 34 l 106 53 l 107 72 l 107 166 q 107 280 103 323 q 100 366 87 405 q 75 444 75 458 q 75 487 152 487 l 160 487 q 187 487 197 456 q 204 436 204 372 l 204 82 l 204 73 l 204 54 l 203 16 q 203 16 203 14 q 203 -138 106 -182 q 74 -196 45 -196 z m 96 644 l 97 653 q 97 674 113 688 q 128 701 160 701 l 164 701 q 211 701 211 665 q 212 661 212 659 l 213 649 l 213 643 l 211 627 q 211 611 198 599 q 186 586 168 586 q 162 585 160 585 l 150 584 l 142 584 q 96 584 96 633 l 96 641 z"},"i":{"x_min":0,"x_max":280,"ha":280,"o":"m 148 5 l 129 5 q 94 5 80 15 q 65 25 65 49 q 65 56 77 85 q 88 114 91 143 q 93 172 93 258 q 93 343 90 370 q 86 398 75 423 q 63 449 63 456 l 63 460 q 63 469 75 479 q 87 490 148 490 l 160 490 q 184 490 188 459 q 189 448 189 372 l 189 279 l 189 265 q 189 255 189 245 l 191 185 q 191 178 191 158 q 191 138 205 97 q 218 57 218 56 l 218 51 q 218 5 148 5 z m 82 634 l 82 646 l 83 660 q 83 674 96 687 q 108 699 126 699 l 130 700 l 146 701 l 157 700 l 168 698 q 199 698 199 654 l 199 640 q 199 617 186 604 q 173 591 157 591 q 153 590 151 590 l 143 589 l 127 589 l 114 591 q 82 591 82 634 z"},"y":{"x_min":0,"x_max":511,"ha":511,"o":"m 102 484 q 160 484 177 446 q 177 445 186 401 q 195 358 230 260 q 265 162 268 162 q 283 162 331 312 q 353 382 358 419 q 363 456 365 461 q 377 488 420 488 q 463 488 463 457 q 463 450 437 388 q 410 325 349 149 q 287 -26 260 -80 q 205 -189 125 -189 q 100 -189 84 -180 q 69 -170 69 -156 q 69 -129 112 -114 q 155 -99 176 -71 q 210 -28 210 18 q 210 63 157 195 q 104 326 95 344 q 50 437 50 444 l 50 454 q 50 465 64 475 q 78 484 102 484 z"},"@":{"x_min":0,"x_max":810,"ha":810,"o":"m 496 368 l 496 386 q 496 409 483 422 q 470 435 450 435 l 447 435 q 404 435 360 375 q 315 316 315 244 l 315 240 q 315 202 331 180 q 347 159 370 159 l 373 159 q 410 159 446 216 q 496 293 496 368 z m 555 410 l 543 256 q 543 231 553 217 q 562 203 579 203 q 596 203 615 218 q 635 232 650 255 q 685 308 685 382 q 685 424 668 469 q 652 515 618 546 q 583 577 542 594 q 500 612 457 612 q 412 612 378 605 q 289 589 221 513 q 138 420 138 275 q 138 195 180 124 q 222 53 296 18 q 355 -10 423 -10 q 424 -10 425 -10 q 494 -10 571 20 q 617 37 630 38 q 636 38 636 34 q 636 23 617 8 q 597 -8 557 -24 q 482 -54 406 -54 q 268 -54 178 27 q 126 74 97 140 q 68 206 68 274 l 68 303 q 68 372 99 446 q 129 521 187 572 q 295 670 434 670 q 572 670 659 591 q 698 555 723 501 q 748 447 748 394 l 748 365 q 748 327 731 277 q 715 227 687 193 q 658 160 628 145 q 599 131 569 131 q 540 131 519 145 l 505 157 l 493 165 q 482 165 442 147 q 402 129 370 129 q 321 129 292 168 q 263 207 263 271 q 263 335 309 389 q 354 442 406 442 l 426 440 l 463 435 l 480 438 l 516 447 q 538 447 546 439 q 555 431 555 410 z"},".":{"x_min":0,"x_max":278,"ha":278,"o":"m 79 47 l 79 63 l 79 65 l 79 70 q 81 77 81 78 q 81 97 94 111 q 107 124 128 124 l 133 125 l 147 125 q 175 125 187 111 q 198 97 198 69 l 198 53 l 196 38 q 196 22 185 8 q 173 -6 144 -6 l 131 -6 l 115 -3 q 100 -3 89 10 q 79 22 79 47 z"},"p":{"x_min":0,"x_max":559,"ha":559,"o":"m 398 242 l 398 276 q 398 342 369 386 q 340 429 301 429 l 292 429 q 253 429 225 394 q 197 358 197 300 l 196 290 q 195 280 195 274 l 194 243 l 194 227 l 195 222 l 195 206 l 197 181 q 197 133 221 103 q 245 72 282 72 l 290 72 l 294 72 q 339 72 368 125 q 398 177 398 242 z m 125 -185 q 64 -185 64 -147 q 64 -131 72 -110 q 80 -88 83 -71 q 87 -53 93 32 q 98 118 98 169 l 99 193 q 100 206 100 217 l 100 229 q 101 241 101 253 l 102 301 q 102 390 93 423 q 84 457 84 458 q 84 485 129 485 q 153 485 175 473 q 197 461 216 461 q 219 461 239 472 q 259 483 278 491 q 297 499 326 499 l 337 499 q 368 499 399 483 q 431 467 455 438 q 500 382 500 289 l 500 263 q 500 213 479 163 q 439 63 356 31 q 323 19 272 19 q 221 19 203 5 q 184 -9 184 -33 q 184 -58 196 -87 q 207 -117 207 -135 q 207 -154 187 -169 q 167 -185 135 -185 z"},"X":{"x_min":0,"x_max":644,"ha":644,"o":"m 233 658 q 237 650 242 625 q 247 599 262 567 q 317 448 330 448 q 349 448 412 569 q 429 603 436 635 q 443 667 448 671 q 462 688 503 688 q 566 688 566 663 q 566 658 478 527 q 390 396 390 364 q 390 347 453 244 q 516 142 550 96 q 584 50 584 41 l 584 29 q 584 4 529 4 l 512 4 q 451 4 431 30 q 423 40 416 71 q 408 102 392 133 q 324 266 312 266 q 292 266 221 129 q 206 100 199 65 q 191 30 188 26 q 173 4 103 4 q 61 4 61 32 q 61 51 93 87 q 125 123 161 179 q 256 329 256 348 q 256 358 199 455 q 143 553 109 598 q 75 644 75 658 q 75 673 87 680 q 100 686 157 686 q 215 686 233 658 z"},"*":{"x_min":0,"x_max":457,"ha":457,"o":"m 268 661 q 268 652 263 623 q 259 595 259 578 q 259 570 272 570 q 274 570 305 589 q 336 608 357 608 q 378 608 378 586 q 378 565 358 543 q 352 536 331 526 q 310 516 310 513 q 310 500 316 488 q 342 444 342 433 q 342 410 320 410 l 273 417 q 268 417 260 403 q 253 388 243 388 l 223 391 q 208 387 204 387 q 195 387 188 403 q 182 420 175 420 l 161 418 q 147 417 135 417 q 122 416 120 416 q 109 416 109 446 q 109 461 130 480 q 148 500 148 517 q 148 520 132 527 q 115 535 107 542 q 84 565 84 587 q 84 614 117 614 q 130 614 162 594 q 194 573 199 573 q 205 573 205 580 l 199 658 q 199 681 210 688 q 222 696 245 696 q 268 696 268 661 z"},"Y":{"x_min":0,"x_max":623,"ha":623,"o":"m 202 659 q 206 653 215 615 q 223 578 245 534 q 316 385 326 385 q 336 385 382 478 q 427 570 434 590 q 441 610 445 634 q 449 658 451 661 q 464 687 519 687 q 573 687 573 659 q 573 645 545 607 q 517 569 461 470 q 406 371 386 324 q 367 277 367 183 q 367 140 371 123 q 375 105 383 84 q 391 63 391 54 q 391 27 372 14 q 353 0 322 0 l 296 0 q 264 0 251 9 q 230 22 230 52 q 230 60 244 96 q 259 132 259 203 q 259 274 245 306 q 231 338 173 447 q 114 556 83 599 q 52 642 52 657 q 52 672 69 679 q 86 686 134 686 q 181 686 202 659 z"},"c":{"x_min":0,"x_max":490,"ha":490,"o":"m 438 405 q 438 393 428 381 q 418 370 404 370 q 391 370 350 396 q 308 423 273 423 q 208 423 176 372 q 144 321 144 246 q 144 171 183 121 q 220 75 282 75 q 316 75 364 96 q 411 117 423 117 q 444 117 444 98 q 444 63 388 31 q 333 0 274 0 l 251 0 q 215 0 175 17 q 94 51 62 138 q 45 182 45 229 l 45 241 q 45 341 101 410 q 167 490 271 490 l 282 490 q 353 490 402 460 q 438 439 438 405 z"},"!":{"x_min":0,"x_max":309,"ha":309,"o":"m 209 32 q 209 -2 174 -2 q 171 -3 169 -3 l 159 -4 l 155 -4 q 102 -4 102 43 l 101 54 l 101 72 l 103 86 q 103 121 139 121 l 151 123 l 159 123 l 172 121 q 184 121 197 110 q 209 99 209 79 l 211 70 l 212 60 l 212 53 l 211 51 l 210 36 q 209 34 209 32 z m 163 697 l 168 697 q 190 697 201 687 q 211 677 211 651 l 211 619 l 210 613 l 208 556 q 208 550 208 544 l 207 533 q 206 527 206 521 l 205 509 q 205 503 205 498 l 199 414 l 197 396 q 196 379 196 373 l 194 354 q 193 336 193 331 l 192 319 q 190 296 189 284 q 189 272 188 264 q 188 255 188 250 q 188 195 158 195 l 148 195 q 125 195 125 250 q 125 261 125 267 l 124 279 l 120 349 l 119 361 q 119 367 119 373 l 118 384 q 116 402 116 414 q 115 425 115 432 l 114 443 q 113 461 112 473 q 112 485 111 494 q 111 502 111 509 l 110 521 l 109 538 l 107 573 l 106 596 l 106 607 l 105 635 q 105 674 118 686 q 131 697 163 697 z"},"/":{"x_min":0,"x_max":417,"ha":417,"o":"m 322 535 l 309 500 q 300 476 292 456 l 255 359 q 248 342 245 333 l 207 236 q 198 211 184 175 l 167 131 q 104 -30 102 -34 q 86 -69 54 -69 q 22 -69 22 -57 q 22 -54 55 36 q 219 490 308 691 q 327 735 359 735 q 392 735 392 723 q 392 710 369 653 q 346 597 322 535 z"},"[":{"x_min":0,"x_max":355,"ha":355,"o":"m 259 739 l 281 739 q 308 739 308 722 q 308 693 257 679 q 206 666 196 637 q 186 608 186 297 q 186 -15 193 -45 q 200 -75 252 -89 q 305 -104 305 -126 q 305 -148 275 -148 l 242 -148 l 230 -148 q 121 -148 110 -125 q 99 -101 99 86 l 99 99 l 100 111 l 100 172 l 100 197 q 100 252 100 464 q 100 676 108 701 q 116 727 145 733 q 173 739 259 739 z"},"6":{"x_min":0,"x_max":556,"ha":556,"o":"m 390 198 l 390 212 q 390 279 360 322 q 330 365 287 365 l 279 365 q 233 365 205 329 q 177 292 177 242 l 177 213 q 177 156 210 104 q 237 62 280 62 l 289 62 l 292 63 q 334 63 362 103 q 390 143 390 198 z m 446 631 q 446 609 377 605 q 309 602 268 571 q 227 541 206 501 q 185 462 185 430 q 185 398 208 398 q 210 398 242 406 q 274 414 309 414 q 343 414 381 395 q 419 376 444 345 q 493 287 493 213 l 493 189 q 493 151 475 112 q 458 74 429 47 q 378 1 313 1 q 248 1 204 23 q 161 44 128 83 q 59 165 59 299 q 59 300 59 301 l 59 314 q 59 388 83 453 q 130 587 233 637 q 294 667 354 667 l 364 667 q 415 667 436 648 q 446 640 446 631 z"},"r":{"x_min":0,"x_max":397,"ha":397,"o":"m 128 4 l 103 4 q 83 4 73 16 q 62 28 62 43 q 62 59 72 83 q 81 107 83 136 q 86 166 86 267 q 86 368 76 401 q 67 434 67 444 q 67 475 131 475 q 163 475 175 467 q 187 459 193 444 q 199 429 207 429 q 210 429 245 455 q 280 481 309 481 l 316 481 q 340 481 355 469 q 370 456 370 429 q 370 388 323 388 l 276 392 q 186 392 186 204 q 186 144 198 105 q 209 67 209 57 q 209 32 188 18 q 167 4 128 4 z"},"2":{"x_min":0,"x_max":551,"ha":551,"o":"m 69 40 q 69 77 125 148 q 150 181 227 261 q 305 342 334 388 q 364 434 364 484 q 364 534 334 562 q 305 590 260 590 q 216 590 171 557 q 165 552 138 527 q 112 502 99 502 q 72 502 72 536 q 72 552 83 572 q 101 604 139 630 q 201 671 284 671 q 366 671 417 621 q 467 570 467 498 q 467 426 419 359 q 393 323 297 231 q 201 139 201 113 q 201 90 271 90 q 340 90 393 96 q 446 102 448 102 q 484 102 484 77 l 484 65 q 484 29 461 18 q 437 7 381 7 l 366 7 l 320 7 l 165 9 q 107 9 93 12 q 69 17 69 40 z"},"{":{"x_min":0,"x_max":385,"ha":385,"o":"m 149 454 l 146 565 q 146 690 233 727 q 267 742 310 742 q 330 742 330 730 q 330 708 294 681 q 259 653 250 638 q 235 610 235 538 l 237 453 q 237 365 198 329 q 186 318 170 307 q 154 296 154 295 q 154 293 167 285 q 180 276 194 264 q 236 229 237 119 l 235 82 q 234 57 234 45 q 234 -15 246 -41 q 258 -67 293 -92 q 328 -118 328 -144 q 328 -154 300 -154 q 271 -154 236 -142 q 201 -130 178 -100 q 146 -59 146 36 l 149 147 q 149 198 134 222 q 119 245 89 260 q 59 276 59 295 q 59 313 90 329 q 121 345 135 368 q 149 391 149 454 z"},"9":{"x_min":0,"x_max":558,"ha":558,"o":"m 164 479 l 164 456 q 164 397 195 356 q 227 316 270 316 l 278 316 q 322 316 353 350 q 384 383 384 440 l 384 459 q 384 527 350 572 q 315 616 269 616 l 264 616 q 225 616 194 576 q 164 537 164 479 z m 106 47 q 106 67 180 73 q 299 83 350 173 q 372 213 372 246 q 372 278 342 278 q 340 278 325 275 l 306 270 q 286 266 255 266 q 226 266 188 281 q 113 312 80 396 q 65 435 65 479 q 65 569 118 625 q 171 681 252 681 l 265 681 q 318 681 362 655 q 453 603 485 482 q 498 432 498 368 q 498 221 415 116 q 382 74 327 43 q 273 12 214 12 l 192 12 q 144 12 118 30 q 106 38 106 47 z"}," ":{"x_min":0,"x_max":321,"ha":321,"o":""},"I":{"x_min":0,"x_max":333,"ha":333,"o":"m 74 649 q 74 690 152 690 l 188 690 q 220 690 240 680 q 261 670 261 652 l 261 645 q 261 636 244 605 q 228 575 224 544 q 219 514 219 344 q 219 173 223 146 q 227 118 244 88 q 260 59 260 45 q 260 31 246 18 q 231 4 201 4 l 138 4 q 108 4 91 16 q 73 28 73 41 l 73 48 q 73 60 89 87 q 104 114 109 145 q 113 175 113 347 q 113 519 109 548 q 105 577 89 606 q 74 635 74 649 z"},"H":{"x_min":0,"x_max":710,"ha":710,"o":"m 239 76 q 239 22 147 22 q 110 22 92 31 q 74 41 74 66 q 74 78 84 101 q 95 124 97 142 q 99 161 99 329 q 99 498 95 535 q 91 572 79 602 q 67 632 67 633 q 67 652 74 660 q 86 676 114 676 l 132 676 q 225 676 225 619 q 225 619 215 580 q 206 542 206 468 q 206 464 206 460 q 206 404 235 391 q 258 380 353 380 q 447 380 467 396 q 486 413 486 498 q 486 546 479 579 q 471 613 471 615 q 471 670 568 670 q 636 670 636 622 q 636 612 629 592 q 621 572 617 553 q 613 533 613 342 q 613 330 613 318 q 613 299 613 282 q 613 146 616 130 q 620 109 632 83 q 644 56 644 44 q 644 33 634 22 q 625 11 594 11 l 575 11 q 490 11 490 72 l 497 102 q 508 151 508 253 q 508 308 479 321 q 451 334 358 334 q 265 334 244 317 q 224 300 224 223 q 224 146 231 112 q 239 79 239 76 z"},"4":{"x_min":0,"x_max":563,"ha":563,"o":"m 325 535 q 325 542 323 542 q 316 542 276 475 q 236 409 182 334 q 128 258 128 254 q 128 249 162 249 l 233 249 l 237 250 l 262 250 q 274 252 282 252 q 311 252 314 268 q 321 300 321 413 l 322 452 q 322 458 322 464 l 325 520 z m 57 229 l 57 237 q 57 251 72 282 q 114 367 307 631 q 340 677 374 677 q 408 677 417 658 q 422 648 422 598 l 421 542 l 420 520 l 419 464 q 419 448 419 431 q 419 331 430 299 q 441 267 466 248 q 490 229 490 219 q 490 183 471 166 q 433 132 433 125 l 437 99 q 438 84 438 59 q 438 33 425 16 q 411 -1 373 -1 l 353 -1 q 331 -1 319 20 q 307 40 307 74 l 310 115 q 310 146 241 166 q 221 171 161 174 q 101 177 85 183 q 57 195 57 229 z"},"~":{"x_min":0,"x_max":584,"ha":584,"o":"m 182 406 l 193 406 q 234 406 304 367 q 374 328 402 328 q 431 328 465 362 q 499 396 507 396 q 531 396 531 370 q 531 331 490 292 q 450 253 404 253 l 392 253 q 357 253 285 292 q 213 332 185 332 q 156 332 121 296 q 86 261 79 261 q 55 261 55 281 l 55 292 q 55 327 96 366 q 138 406 182 406 z"},"D":{"x_min":0,"x_max":697,"ha":697,"o":"m 221 127 q 221 95 234 87 q 254 76 289 76 l 311 76 q 398 76 453 142 q 483 180 500 233 q 516 286 516 338 l 516 365 q 516 427 497 477 q 442 618 306 618 l 299 618 q 228 618 223 591 q 222 589 222 557 l 222 518 l 223 503 l 223 488 l 223 473 l 223 249 l 223 241 q 223 233 223 226 l 221 149 z m 90 31 q 90 39 100 61 q 109 83 115 110 q 121 136 121 201 l 122 213 q 122 225 122 236 l 123 260 l 123 365 q 123 521 118 561 q 114 602 102 630 q 90 658 90 662 q 90 679 107 683 q 125 688 185 688 l 217 689 l 228 689 l 293 690 q 375 690 431 673 q 486 655 532 611 q 579 566 604 501 q 628 437 628 373 l 628 334 q 628 334 628 332 q 628 265 600 195 q 545 63 415 21 q 362 3 274 3 l 220 3 q 146 3 118 9 q 90 14 90 31 z"},"^":{"x_min":0,"x_max":538,"ha":538,"o":"m 268 692 l 275 692 q 298 692 324 652 q 330 643 471 388 q 484 364 484 357 q 484 350 463 350 l 456 350 q 422 350 392 390 q 381 404 327 503 q 273 601 270 601 q 260 601 211 507 q 163 413 137 382 q 112 352 83 352 q 54 352 54 361 q 54 369 81 412 q 108 455 160 548 l 187 598 q 216 650 230 671 q 245 692 268 692 z"},"0":{"x_min":0,"x_max":563,"ha":563,"o":"m 289 613 l 277 613 q 255 613 234 595 q 213 576 198 541 q 168 466 168 355 l 168 315 q 168 142 230 83 q 251 63 273 63 l 284 63 q 307 63 327 81 q 347 98 360 130 q 392 203 392 321 l 392 361 q 392 475 363 545 q 348 582 327 598 q 305 613 289 613 z m 291 -6 l 273 -6 q 183 -6 128 79 q 101 120 85 184 q 70 249 70 314 l 70 357 q 70 416 86 481 q 117 609 194 657 q 234 682 273 682 l 300 682 q 338 682 376 659 q 455 611 483 492 q 499 426 499 353 l 498 342 l 498 331 q 498 265 482 198 q 466 131 438 87 q 409 44 371 19 q 333 -6 291 -6 z"},"F":{"x_min":0,"x_max":551,"ha":551,"o":"m 228 53 q 228 16 166 16 l 153 16 q 121 16 100 29 q 79 42 79 68 l 79 79 q 79 86 91 111 q 104 136 108 161 q 113 186 113 253 l 113 335 l 112 380 l 111 395 q 111 410 111 472 q 111 534 95 585 q 80 636 80 643 q 80 682 266 682 l 296 683 l 343 684 l 403 684 q 466 684 485 675 q 512 663 512 627 l 512 615 q 512 591 483 591 q 479 591 427 603 q 374 614 308 614 l 306 615 q 241 615 229 589 q 211 555 211 458 q 211 404 276 404 q 300 404 326 409 l 348 415 q 365 419 371 419 q 402 419 422 387 q 434 367 434 329 q 434 287 393 287 q 387 287 371 291 l 349 297 q 334 300 289 300 q 244 300 228 276 q 211 253 211 193 q 211 133 220 97 q 228 61 228 53 z"},"`":{"x_min":0,"x_max":375,"ha":375,"o":"m 112 725 l 125 725 q 161 725 182 701 q 263 608 263 572 q 263 562 246 562 l 235 562 q 211 562 170 598 q 76 680 76 708 l 76 710 q 76 725 112 725 z"},"k":{"x_min":0,"x_max":531,"ha":531,"o":"m 89 31 q 71 40 71 69 q 71 76 73 91 l 74 103 q 82 157 82 201 l 83 233 q 83 258 83 283 l 83 333 l 83 384 q 83 534 82 573 q 81 613 71 643 q 62 674 62 688 q 62 710 114 710 q 167 710 175 675 q 179 662 179 535 l 178 519 q 178 502 178 485 l 179 421 q 179 308 196 308 q 223 308 271 365 q 290 387 309 415 q 329 443 339 452 q 363 470 409 470 q 454 470 454 456 q 454 445 386 380 q 318 315 318 287 q 318 259 404 146 q 427 115 464 79 q 501 42 501 26 q 501 10 457 10 l 442 10 q 391 10 365 38 q 362 41 342 74 q 322 107 303 136 q 245 221 231 221 q 199 221 199 162 l 207 83 q 207 59 188 42 q 169 26 134 26 q 100 26 89 31 z"},"u":{"x_min":0,"x_max":559,"ha":559,"o":"m 497 61 l 497 51 q 497 42 488 34 q 471 19 425 19 q 409 19 391 32 q 372 46 365 46 q 357 46 315 25 q 272 3 238 3 l 225 3 q 142 3 98 81 q 77 119 77 246 q 77 372 64 407 q 51 441 51 448 l 51 458 q 51 480 92 480 l 105 480 q 151 480 163 449 q 171 424 171 311 l 172 257 q 173 243 173 230 q 173 149 194 111 q 215 73 263 73 q 289 73 315 87 q 341 101 357 127 q 383 171 383 288 q 383 327 378 377 q 373 427 373 429 q 373 456 391 467 q 410 478 459 478 q 474 478 479 466 q 485 453 485 396 l 479 216 q 479 135 487 102 l 493 81 q 497 64 497 61 z"},"]":{"x_min":0,"x_max":354,"ha":354,"o":"m 77 -149 q 52 -149 52 -133 q 52 -105 104 -92 q 155 -78 164 -49 q 172 -21 172 292 q 172 604 165 635 q 157 667 104 681 q 52 695 52 716 l 52 724 q 52 738 80 738 l 111 738 q 211 738 231 724 q 252 710 252 647 l 253 624 l 253 404 l 253 354 l 253 109 q 253 -101 240 -125 q 227 -148 120 -148 l 98 -149 z"},"U":{"x_min":0,"x_max":686,"ha":686,"o":"m 504 644 q 504 683 576 683 q 599 683 614 664 q 629 646 629 627 q 629 607 617 577 q 604 546 601 517 q 598 488 598 365 q 598 243 590 188 q 582 133 551 87 q 487 -6 340 -6 q 193 -6 131 95 q 105 139 98 195 q 91 251 91 385 q 91 518 88 535 q 85 553 74 577 q 62 602 62 617 q 62 649 84 671 q 97 683 122 683 l 138 683 q 178 683 196 670 q 213 658 213 630 q 213 628 206 587 q 198 545 198 459 l 197 442 q 197 424 197 406 l 196 370 q 196 352 196 334 q 196 177 229 126 q 253 90 284 78 q 316 65 356 65 q 396 65 430 85 q 465 105 486 143 q 518 201 518 372 l 517 461 q 517 542 510 590 q 504 638 504 644 z"},"o":{"x_min":0,"x_max":555,"ha":555,"o":"m 393 237 l 393 260 q 393 327 361 386 q 349 409 327 424 q 304 439 285 439 l 271 439 q 228 439 197 387 q 167 335 167 269 l 167 239 q 167 228 167 222 q 167 159 201 110 q 235 61 276 61 l 285 61 q 305 61 327 74 q 349 87 364 115 q 393 169 393 237 z m 70 230 l 70 256 q 70 308 88 355 q 123 449 202 488 q 238 506 285 506 l 293 506 q 339 506 377 486 q 456 445 483 350 q 495 308 495 261 l 495 253 q 495 151 439 77 q 411 39 369 18 q 327 -3 287 -3 l 264 -3 q 188 -3 129 61 q 105 87 87 134 q 70 180 70 230 z"},"N":{"x_min":0,"x_max":711,"ha":711,"o":"m 524 633 q 524 680 584 680 q 615 680 631 664 q 646 648 646 628 q 646 608 635 571 q 624 533 621 497 q 617 461 617 255 q 617 49 614 38 q 608 17 576 17 q 543 17 495 76 q 447 135 329 315 q 210 496 187 496 q 176 496 176 379 q 176 357 176 336 l 176 315 q 177 293 177 239 q 177 184 185 135 q 194 87 194 83 q 194 53 170 31 q 146 9 111 9 l 92 9 q 62 9 62 35 q 62 49 76 80 q 90 111 94 149 q 97 186 97 345 q 97 504 95 541 q 94 578 84 611 q 74 644 74 647 q 74 673 110 673 q 180 673 242 603 q 266 575 395 387 q 524 198 532 198 q 542 198 542 359 q 542 520 538 551 q 534 583 529 606 q 524 630 524 633 z"},"+":{"x_min":0,"x_max":580,"ha":580,"o":"m 336 442 q 334 398 334 387 l 333 360 q 333 342 395 342 l 430 343 q 449 344 458 344 l 493 345 q 521 345 521 319 l 521 311 q 521 288 512 283 q 502 278 440 278 l 357 275 q 331 275 327 270 q 324 264 324 231 l 324 184 l 323 166 q 323 157 323 128 q 323 100 317 87 q 312 75 290 75 l 271 75 q 251 75 247 85 q 243 96 243 146 l 245 200 l 246 218 q 247 237 247 249 q 247 262 240 264 q 234 266 188 266 l 161 266 q 142 265 133 265 l 115 264 q 105 263 88 263 q 59 263 59 288 l 59 306 q 59 324 74 328 q 82 331 128 331 l 184 332 q 247 332 252 341 q 254 344 254 396 l 256 470 q 256 508 262 520 q 268 532 291 532 l 310 532 q 330 532 334 519 q 336 513 336 482 z"},"G":{"x_min":0,"x_max":705,"ha":705,"o":"m 447 301 q 447 328 542 328 q 637 328 637 292 q 637 275 613 120 q 606 77 593 61 q 579 45 544 38 q 509 30 469 18 q 430 6 394 2 l 375 1 l 355 1 q 287 1 231 27 q 123 79 79 191 q 53 256 53 330 l 53 350 q 53 418 80 485 q 105 553 149 597 q 240 688 374 688 q 553 688 592 621 q 607 596 607 574 q 607 538 581 538 q 569 538 529 563 q 488 588 455 600 q 421 612 375 612 q 282 612 225 539 q 168 466 168 332 q 168 285 185 234 q 218 135 296 97 q 335 78 384 78 q 433 78 467 109 q 501 139 501 181 q 501 223 474 260 q 447 297 447 301 z"},"q":{"x_min":0,"x_max":562,"ha":562,"o":"m 376 281 q 376 440 287 440 l 270 440 q 255 440 232 427 q 210 414 195 386 q 166 331 166 271 l 166 242 q 166 176 196 123 q 225 71 266 71 l 281 71 q 319 71 346 108 q 374 146 374 211 l 375 227 l 376 254 z m 510 -142 q 510 -188 435 -188 q 370 -188 370 -136 q 370 -132 378 -98 q 387 -63 387 -35 q 387 -7 380 0 q 364 19 324 19 l 254 15 q 219 15 183 34 q 111 72 84 159 q 68 210 68 255 l 68 280 q 68 375 128 443 q 153 471 188 488 q 222 504 256 504 q 290 504 338 488 q 386 471 392 471 l 398 473 l 412 480 q 424 485 434 485 q 462 485 472 451 q 473 445 473 305 l 475 199 q 476 188 476 176 l 476 164 q 477 152 477 141 l 478 118 q 479 95 479 84 l 480 50 q 481 17 481 -10 q 481 -37 486 -54 q 491 -72 500 -94 q 510 -117 510 -142 z"},"d":{"x_min":0,"x_max":565,"ha":565,"o":"m 374 278 l 373 304 q 373 365 347 400 q 322 435 282 435 l 270 435 q 226 435 196 383 q 167 331 167 260 l 167 237 q 167 169 194 119 q 220 69 262 69 l 279 69 q 294 69 318 83 q 341 97 352 118 q 375 160 375 256 l 375 272 z m 474 315 q 470 209 470 166 q 470 123 475 97 q 480 72 482 64 q 484 56 484 53 l 484 45 q 484 19 437 19 q 415 19 392 29 q 370 40 360 40 q 350 40 312 21 q 274 2 238 2 q 164 2 117 58 q 71 113 71 220 l 71 232 q 71 343 132 417 q 193 490 284 490 q 285 490 303 489 l 329 487 q 357 487 367 498 q 377 508 377 551 q 377 594 369 624 q 362 654 362 661 q 362 681 379 694 q 397 707 433 707 q 469 707 477 684 q 481 671 481 555 l 480 499 q 480 488 480 477 l 480 465 q 479 454 479 443 l 479 420 q 478 397 477 385 z"},"1":{"x_min":0,"x_max":526,"ha":526,"o":"m 289 661 l 297 661 q 323 661 329 620 q 334 578 334 400 q 334 223 339 191 q 343 160 366 116 q 389 73 389 53 q 389 32 355 13 q 335 2 290 2 q 245 2 223 14 q 175 38 175 61 q 175 85 198 118 q 220 151 227 179 q 233 208 233 333 q 233 458 214 505 q 202 536 163 549 q 125 562 125 574 q 125 588 151 604 q 253 661 289 661 z"},"5":{"x_min":0,"x_max":553,"ha":553,"o":"m 460 638 q 460 603 429 589 q 405 579 320 579 q 234 579 216 567 q 180 542 180 468 q 180 443 188 436 q 195 428 246 428 q 354 428 419 371 q 483 313 483 216 q 483 118 416 54 q 348 -10 241 -10 q 177 -10 121 18 q 65 46 65 81 q 65 113 101 113 q 106 113 156 87 q 207 61 247 61 q 312 61 346 103 q 381 146 381 208 q 381 248 364 277 q 346 306 321 322 q 281 347 180 347 q 129 347 112 363 q 95 378 95 411 q 95 444 115 566 q 123 615 136 633 q 148 651 172 656 q 196 661 257 661 q 318 661 368 664 q 418 667 422 667 q 460 667 460 638 z"}}}
